<svg xmlns="http://www.w3.org/2000/svg" width="1024" height="1024" viewBox="0 0 1024 1024">
<defs>
<radialGradient id="video" gradientUnits="userSpaceOnUse" cx="512" cy="512" r="372"><stop offset="0%" stop-color="#6a4bff"></stop><stop offset="100%" stop-color="#a86bff"></stop></radialGradient><radialGradient id="image" gradientUnits="userSpaceOnUse" cx="512" cy="512" r="372"><stop offset="0%" stop-color="#22c55e"></stop><stop offset="100%" stop-color="#5ee089"></stop></radialGradient><radialGradient id="document" gradientUnits="userSpaceOnUse" cx="512" cy="512" r="372"><stop offset="0%" stop-color="#f59e0b"></stop><stop offset="100%" stop-color="#ffca57"></stop></radialGradient><radialGradient id="app" gradientUnits="userSpaceOnUse" cx="512" cy="512" r="372"><stop offset="0%" stop-color="#14b8c6"></stop><stop offset="100%" stop-color="#54e0ea"></stop></radialGradient><radialGradient id="audio" gradientUnits="userSpaceOnUse" cx="512" cy="512" r="372"><stop offset="0%" stop-color="#ec4899"></stop><stop offset="100%" stop-color="#ff77b4"></stop></radialGradient><radialGradient id="archive" gradientUnits="userSpaceOnUse" cx="512" cy="512" r="372"><stop offset="0%" stop-color="#ef4444"></stop><stop offset="100%" stop-color="#ff7a72"></stop></radialGradient>
<radialGradient id="bg" gradientUnits="userSpaceOnUse" cx="512" cy="82" r="1180"><stop offset="0%" stop-color="#17171d"></stop><stop offset="58%" stop-color="#0c0c10"></stop><stop offset="100%" stop-color="#08080b"></stop></radialGradient>
<radialGradient id="ctr" gradientUnits="userSpaceOnUse" cx="512" cy="484" r="108"><stop offset="0%" stop-color="#1e1e28"></stop><stop offset="100%" stop-color="#101017"></stop></radialGradient>
</defs>
<rect x="0" y="0" width="1024" height="1024" rx="235" fill="url(#bg)"></rect>
<path d="M512 320 A192 192 0 0 1 672.051657962455 618.0540748084171 L605.3634671447654 573.8648769715767 A112 112 0 0 0 512 400 Z" fill="url(#video)" stroke="#0b0c10" stroke-width="6" stroke-linejoin="round"></path><path d="M512 232 A280 280 0 0 1 713.0153384580437 317.0824951303806 L655.5823846128884 372.77321080741467 A200 200 0 0 0 512 312 Z" fill="url(#video)" stroke="#0b0c10" stroke-width="6" stroke-linejoin="round"></path><path d="M713.0153384580437 317.0824951303806 A280 280 0 0 1 785.5175289726882 452.09873670218076 L707.3696635519201 469.2133833587005 A200 200 0 0 0 655.5823846128884 372.77321080741467 Z" fill="url(#video)" stroke="#0b0c10" stroke-width="6" stroke-linejoin="round"></path><path d="M785.5175289726882 452.09873670218076 A280 280 0 0 1 785.5175289726882 571.9012632978194 L707.3696635519201 554.7866166412996 A200 200 0 0 0 707.3696635519201 469.2133833587005 Z" fill="url(#video)" stroke="#0b0c10" stroke-width="6" stroke-linejoin="round"></path><path d="M871.4801809355331 433.272625380009 A368 368 0 0 1 879.8254648545187 523.3325815486708 L799.8634072774494 520.8689768641771 A288 288 0 0 0 793.332315514765 450.38727203652877 Z" fill="url(#video)" stroke="#0b0c10" stroke-width="6" stroke-linejoin="round"></path><path d="M879.8254648545187 523.3325815486708 A368 368 0 0 1 871.4801809355331 590.7273746199911 L793.332315514765 573.6127279634713 A288 288 0 0 0 799.8634072774494 520.8689768641771 Z" fill="url(#video)" stroke="#0b0c10" stroke-width="6" stroke-linejoin="round"></path><path d="M785.5175289726882 571.9012632978194 A280 280 0 0 1 745.4086678619135 666.6621924289416 L678.7204770442239 622.4729945921011 A200 200 0 0 0 707.3696635519201 554.7866166412996 Z" fill="url(#video)" stroke="#0b0c10" stroke-width="6" stroke-linejoin="round"></path><path d="M672.051657962455 618.0540748084171 A192 192 0 0 1 453.79468657029565 694.9648640820141 L478.04690049933913 618.7295040478416 A112 112 0 0 0 605.3634671447654 573.8648769715767 Z" fill="url(#image)" stroke="#0b0c10" stroke-width="6" stroke-linejoin="round"></path><path d="M745.4086678619135 666.6621924289416 A280 280 0 0 1 629.0288965682994 766.3702761094667 L595.5920689773567 693.6930543639047 A200 200 0 0 0 678.7204770442239 622.4729945921011 Z" fill="url(#image)" stroke="#0b0c10" stroke-width="6" stroke-linejoin="round"></path><path d="M629.0288965682994 766.3702761094667 A280 280 0 0 1 529.2370537175041 791.4689320463724 L524.3121812267887 711.6206657474088 A200 200 0 0 0 595.5920689773567 693.6930543639047 Z" fill="url(#image)" stroke="#0b0c10" stroke-width="6" stroke-linejoin="round"></path><path d="M529.2370537175041 791.4689320463724 A280 280 0 0 1 427.117251248348 778.8237601196039 L451.3694651773914 702.5884000854313 A200 200 0 0 0 524.3121812267887 711.6206657474088 Z" fill="url(#image)" stroke="#0b0c10" stroke-width="6" stroke-linejoin="round"></path><path d="M534.6544134572911 879.3020249752323 A368 368 0 0 1 444.38017744350236 873.7341006836759 L459.08013886882793 795.0962527089637 A288 288 0 0 0 529.7295409665757 799.4537586762688 Z" fill="url(#image)" stroke="#0b0c10" stroke-width="6" stroke-linejoin="round"></path><path d="M444.38017744350236 873.7341006836759 A368 368 0 0 1 400.4398159264002 862.6826561571936 L424.6920298554436 786.4472961230211 A288 288 0 0 0 459.08013886882793 795.0962527089637 Z" fill="url(#image)" stroke="#0b0c10" stroke-width="6" stroke-linejoin="round"></path><path d="M453.79468657029565 694.9648640820141 A192 192 0 0 1 330.91434858151473 575.8121215000947 L406.36670333921694 549.2237375417219 A112 112 0 0 0 478.04690049933913 618.7295040478416 Z" fill="url(#document)" stroke="#0b0c10" stroke-width="6" stroke-linejoin="round"></path><path d="M427.1172512483479 778.8237601196038 A280 280 0 0 1 323.365219778964 718.9224968217845 L377.26087127068854 659.8017834441318 A200 200 0 0 0 451.3694651773913 702.5884000854313 Z" fill="url(#document)" stroke="#0b0c10" stroke-width="6" stroke-linejoin="round"></path><path d="M323.365219778964 718.9224968217845 A280 280 0 0 1 269.51288694035713 651.9999999999999 L338.79491924311225 611.9999999999999 A200 200 0 0 0 377.26087127068854 659.8017834441318 Z" fill="url(#document)" stroke="#0b0c10" stroke-width="6" stroke-linejoin="round"></path><path d="M269.51288694035713 651.9999999999999 A280 280 0 0 1 247.9167583480422 605.0593438543045 L323.3691131057444 578.4709598959317 A200 200 0 0 0 338.79491924311225 611.9999999999999 Z" fill="url(#document)" stroke="#0b0c10" stroke-width="6" stroke-linejoin="round"></path><path d="M330.91434858151473 575.8121215000947 A192 192 0 0 1 340.128648059828 426.4182356909048 L411.741711368233 462.0773041530278 A112 112 0 0 0 406.36670333921694 549.2237375417219 Z" fill="url(#app)" stroke="#0b0c10" stroke-width="6" stroke-linejoin="round"></path><path d="M247.91675834804232 605.0593438543048 A280 280 0 0 1 235.31366781724734 469.0503366339683 L314.3669055837481 481.32166902426303 A200 200 0 0 0 323.36911310574453 578.470959895932 Z" fill="url(#app)" stroke="#0b0c10" stroke-width="6" stroke-linejoin="round"></path><path d="M235.31366781724734 469.0503366339683 A280 280 0 0 1 261.3542784205825 387.19326038256946 L332.9673417289875 422.85232884469247 A200 200 0 0 0 314.3669055837481 481.32166902426303 Z" fill="url(#app)" stroke="#0b0c10" stroke-width="6" stroke-linejoin="round"></path><path d="M340.128648059828 426.4182356909048 A192 192 0 0 1 410.9250247275476 348.75830993991417 L453.0395977577361 416.77568079828325 A112 112 0 0 0 411.741711368233 462.0773041530278 Z" fill="url(#audio)" stroke="#0b0c10" stroke-width="6" stroke-linejoin="round"></path><path d="M261.3542784205825 387.19326038256946 A280 280 0 0 1 310.98466154195614 317.08249513038066 L368.4176153871115 372.7732108074148 A200 200 0 0 0 332.9673417289875 422.85232884469247 Z" fill="url(#audio)" stroke="#0b0c10" stroke-width="6" stroke-linejoin="round"></path><path d="M310.98466154195614 317.08249513038066 A280 280 0 0 1 364.59899439434025 273.9392019957081 L406.7135674245288 341.9565728540772 A200 200 0 0 0 368.4176153871115 372.7732108074148 Z" fill="url(#audio)" stroke="#0b0c10" stroke-width="6" stroke-linejoin="round"></path><path d="M410.9250247275476 348.75830993991417 A192 192 0 0 1 511.99999999999994 320 L512 400 A112 112 0 0 0 453.0395977577361 416.77568079828325 Z" fill="url(#archive)" stroke="#0b0c10" stroke-width="6" stroke-linejoin="round"></path><path d="M364.59899439434025 273.9392019957081 A280 280 0 0 1 511.99999999999994 232 L511.99999999999994 312 A200 200 0 0 0 406.7135674245288 341.9565728540772 Z" fill="url(#archive)" stroke="#0b0c10" stroke-width="6" stroke-linejoin="round"></path>
<circle cx="512" cy="512" r="92" fill="url(#ctr)" stroke="#0b0c10" stroke-width="6"></circle>
<circle cx="512" cy="512" r="22" fill="#8a7bff"></circle>
</svg>